<svg xmlns="http://www.w3.org/2000/svg" viewBox="0 0 64 64">
  <defs>
    <linearGradient id="grad" x1="0%" x2="100%" y1="0%" y2="100%">
      <stop offset="0%" stop-color="#ff9a3c" />
      <stop offset="100%" stop-color="#ff5f0f" />
    </linearGradient>
  </defs>
  <rect width="64" height="64" rx="14" fill="url(#grad)" />
  <path d="M32 14c-7 0-13 6-13 13 0 5 3 9 7 11-2 6-3 9-3 9h4c1-2 2-5 3-9h4c1 4 2 7 3 9h4s-1-3-3-9c4-2 7-6 7-11 0-7-6-13-13-13zm0 6a7 7 0 0 1 7 7c0 4-3 7-7 7s-7-3-7-7a7 7 0 0 1 7-7z" fill="#fff" />
</svg>
